<svg version="1.1" id="Layer_1" xmlns="http://www.w3.org/2000/svg" xmlns:xlink="http://www.w3.org/1999/xlink" x="0px" y="0px"
	 width="100%" viewBox="0 0 380 331" enable-background="new 0 0 380 331" xml:space="preserve">
<path fill="#FFFFFF" opacity="1.000000" stroke="none" 
	d="
M1.000000,329.000000 
	C1.000000,219.712662 1.000000,110.425323 1.000000,1.068993 
	C127.567352,1.068993 254.134750,1.068993 381.000000,1.068993 
	C381.000000,110.354584 381.000000,219.709442 380.658997,329.423950 
	C377.888458,325.586761 375.436310,321.402924 373.033142,317.191071 
	C357.013336,289.114410 341.013306,261.026489 324.978119,232.958633 
	C323.185242,229.820389 321.212128,226.785110 318.742157,222.755081 
	C310.129578,237.891953 302.081085,252.037445 293.988831,266.259827 
	C294.617218,267.022919 295.360413,267.711304 295.847626,268.548645 
	C306.576874,286.988953 317.324585,305.418915 327.928040,323.931488 
	C329.340912,326.398254 329.994690,329.299805 331.000000,332.000000 
	C324.978363,332.000000 318.956757,332.000000 312.467560,331.592407 
	C311.557892,329.506958 311.429810,327.657074 310.620789,326.180237 
	C306.500122,318.657837 302.207764,311.229401 297.967224,303.772797 
	C289.479004,288.846954 281.019073,273.904816 272.485596,259.004883 
	C261.301239,239.476318 250.076370,219.970871 238.828873,200.478592 
	C234.506134,192.987152 230.073242,185.559280 225.588226,177.928375 
	C224.598511,178.963745 223.735611,179.578873 223.253403,180.413849 
	C215.643204,193.591171 208.049744,206.778595 200.574783,220.032700 
	C200.018494,221.019104 199.880127,222.822876 200.411346,223.753586 
	C208.196808,237.394028 216.146042,250.940842 224.020432,264.530731 
	C228.781433,272.747437 233.480637,280.999969 238.645844,290.000000 
	C235.986771,290.000000 234.225418,290.000000 232.464081,290.000000 
	C188.136490,290.000000 143.808899,290.000000 99.481300,290.000000 
	C75.651054,290.000000 51.820641,290.041412 27.990791,289.944305 
	C25.208126,289.932953 23.549883,290.603088 22.177721,293.245544 
	C18.302517,300.708374 14.172194,308.046906 9.909540,315.297485 
	C7.151201,319.989319 3.983996,324.440826 1.000000,329.000000 
M154.991302,143.688385 
	C155.737442,146.333160 156.791245,146.321686 158.741516,143.738510 
	C164.568237,133.294785 170.253448,122.769028 176.250885,112.424271 
	C189.069443,90.314072 202.084595,68.317787 214.866974,46.186901 
	C215.552628,44.999767 215.353699,42.738663 214.682602,41.431282 
	C212.173004,36.542377 209.272324,31.855457 206.561096,27.068565 
	C202.338867,19.613909 198.274902,12.065049 193.850845,4.732913 
	C192.906982,3.168606 191.212784,-0.624048 188.655319,3.788556 
	C181.276459,16.519955 173.854370,29.226482 166.520493,41.983734 
	C155.316681,61.472698 144.127319,80.970520 133.105469,100.562286 
	C132.375015,101.860695 133.112350,103.984856 133.137787,106.560257 
	C137.091232,113.364960 140.976501,120.210495 145.021225,126.960510 
	C147.888290,131.745193 150.970795,136.400787 153.999496,141.708969 
	C154.294662,142.153305 154.589828,142.597641 154.991302,143.688385 
M124.974220,123.314758 
	C124.202339,122.223267 123.430458,121.131767 122.417007,119.698677 
	C121.363159,121.471619 120.624321,122.714592 119.232864,124.295601 
	C112.040367,137.132309 104.950798,150.028061 97.629921,162.791138 
	C87.976349,179.620987 78.120300,196.334579 68.390388,213.120819 
	C59.713692,228.090073 51.035980,243.059296 42.478127,258.096466 
	C40.092045,262.289093 38.129513,266.722748 35.496624,272.000000 
	C39.195118,272.000000 41.158142,272.000000 43.121166,272.000000 
	C82.095367,272.000000 121.069572,272.015930 160.043762,271.992462 
	C176.362381,271.982635 192.680969,271.889282 209.541351,271.905273 
	C209.375183,271.565948 209.209030,271.226654 208.748215,270.221100 
	C202.093887,258.236267 195.351715,246.298737 188.850800,234.231232 
	C187.342789,231.431961 185.438934,230.906158 182.535675,230.935806 
	C168.561523,231.078506 154.585083,231.000000 140.609467,231.000000 
	C130.173370,231.000000 119.737267,231.000000 108.411301,231.000000 
	C111.517120,225.641739 114.371628,221.009628 116.931458,216.220032 
	C119.591698,211.242569 121.765877,205.999573 124.532722,201.086761 
	C126.619759,197.380997 129.532089,194.143219 131.660309,190.456543 
	C133.697830,186.926987 134.999786,182.976227 136.993164,179.416748 
	C138.762573,176.257156 141.813553,173.630875 142.883530,170.312790 
	C144.098282,166.545792 147.363892,163.140976 144.200989,158.107788 
	C137.251480,147.048889 131.232300,135.405350 124.974220,123.314758 
M284.533051,162.039017 
	C279.985626,154.199463 275.387421,146.388824 270.900391,138.514862 
	C258.231232,116.282700 245.632950,94.010117 232.943481,71.789589 
	C230.584976,67.659622 227.931854,63.697891 224.983322,58.966259 
	C195.254013,110.778519 166.069107,161.641968 136.600525,212.999802 
	C153.237610,212.999802 169.063354,213.048920 184.887390,212.906174 
	C186.147934,212.894806 187.935623,211.871674 188.569565,210.787384 
	C197.725143,195.127975 206.726120,179.378159 215.761536,163.648499 
	C218.933594,158.126282 222.098526,152.599976 225.692642,146.332855 
	C245.539566,181.152634 264.970428,215.242493 284.822235,250.070816 
	C292.586914,236.442596 299.721436,223.782623 307.016846,211.216080 
	C308.762604,208.208954 309.517120,206.083771 307.326691,202.446411 
	C299.481995,189.419861 292.351410,175.963257 284.533051,162.039017 
M35.538837,271.885956 
	C35.618729,271.689850 35.698624,271.493713 35.778519,271.297607 
	C35.564774,271.354004 35.351028,271.410431 35.538837,271.885956 
z"/>
<path fill="#403F41" opacity="1.000000" stroke="none" 
	d="
M1.000000,329.500000 
	C3.983996,324.440826 7.151201,319.989319 9.909540,315.297485 
	C14.172194,308.046906 18.302517,300.708374 22.177721,293.245544 
	C23.549883,290.603088 25.208126,289.932953 27.990791,289.944305 
	C51.820641,290.041412 75.651054,290.000000 99.481300,290.000000 
	C143.808899,290.000000 188.136490,290.000000 232.464081,290.000000 
	C234.225418,290.000000 235.986771,290.000000 238.645844,290.000000 
	C233.480637,280.999969 228.781433,272.747437 224.020432,264.530731 
	C216.146042,250.940842 208.196808,237.394028 200.411346,223.753586 
	C199.880127,222.822876 200.018494,221.019104 200.574783,220.032700 
	C208.049744,206.778595 215.643204,193.591171 223.253403,180.413849 
	C223.735611,179.578873 224.598511,178.963745 225.588226,177.928375 
	C230.073242,185.559280 234.506134,192.987152 238.828873,200.478592 
	C250.076370,219.970871 261.301239,239.476318 272.485596,259.004883 
	C281.019073,273.904816 289.479004,288.846954 297.967224,303.772797 
	C302.207764,311.229401 306.500122,318.657837 310.620789,326.180237 
	C311.429810,327.657074 311.557892,329.506958 312.000000,331.592407 
	C209.663452,332.000000 107.326912,332.008759 4.990486,331.898590 
	C3.733904,331.897247 0.687301,333.944397 1.000000,329.500000 
z"/>
<path fill="#403F41" opacity="1.000000" stroke="none" 
	d="
M331.468658,332.000000 
	C329.994690,329.299805 329.340912,326.398254 327.928040,323.931488 
	C317.324585,305.418915 306.576874,286.988953 295.847626,268.548645 
	C295.360413,267.711304 294.617218,267.022919 293.988831,266.259827 
	C302.081085,252.037445 310.129578,237.891953 318.742157,222.755081 
	C321.212128,226.785110 323.185242,229.820389 324.978119,232.958633 
	C341.013306,261.026489 357.013336,289.114410 373.033142,317.191071 
	C375.436310,321.402924 377.888458,325.586761 380.658997,329.891785 
	C381.609497,333.025818 379.313019,331.963867 378.042358,331.967957 
	C362.674133,332.017395 347.305695,332.000000 331.468658,332.000000 
M364.459534,306.078888 
	C349.913483,280.944916 335.367432,255.810944 320.084412,229.403580 
	C312.550690,242.865417 305.847107,254.651947 299.434265,266.594604 
	C298.780975,267.811157 299.418060,270.225922 300.226868,271.645630 
	C310.495422,289.669952 320.851074,307.645813 331.390625,325.512390 
	C332.162872,326.821503 334.503082,327.832123 336.152283,327.889465 
	C343.471222,328.143890 350.803986,327.999939 358.131775,328.000000 
	C363.892822,328.000031 369.653870,328.000000 376.595581,328.000000 
	C372.309570,320.230347 368.579041,313.467682 364.459534,306.078888 
z"/>
<path fill="#403F41" opacity="1.000000" stroke="none" 
	d="
M284.741913,162.354156 
	C292.351410,175.963257 299.481995,189.419861 307.326691,202.446411 
	C309.517120,206.083771 308.762604,208.208954 307.016846,211.216080 
	C299.721436,223.782623 292.586914,236.442596 284.822235,250.070816 
	C264.970428,215.242493 245.539566,181.152634 225.692642,146.332855 
	C222.098526,152.599976 218.933594,158.126282 215.761536,163.648499 
	C206.726120,179.378159 197.725143,195.127975 188.569565,210.787384 
	C187.935623,211.871674 186.147934,212.894806 184.887390,212.906174 
	C169.063354,213.048920 153.237610,212.999802 136.600525,212.999802 
	C166.069107,161.641968 195.254013,110.778519 224.983322,58.966259 
	C227.931854,63.697891 230.584976,67.659622 232.943481,71.789589 
	C245.632950,94.010117 258.231232,116.282700 270.900391,138.514862 
	C275.387421,146.388824 279.985626,154.199463 284.741913,162.354156 
z"/>
<path fill="#403F41" opacity="1.000000" stroke="none" 
	d="
M208.999573,271.833923 
	C192.680969,271.889282 176.362381,271.982635 160.043762,271.992462 
	C121.069572,272.015930 82.095367,272.000000 43.121166,272.000000 
	C41.158142,272.000000 39.195118,272.000000 35.496624,272.000000 
	C38.129513,266.722748 40.092045,262.289093 42.478127,258.096466 
	C51.035980,243.059296 59.713692,228.090073 68.390388,213.120819 
	C78.120300,196.334579 87.976349,179.620987 97.629921,162.791138 
	C104.950798,150.028061 112.040367,137.132309 119.971588,124.138634 
	C122.084648,123.987930 123.459000,123.994194 124.833344,124.000458 
	C131.232300,135.405350 137.251480,147.048889 144.200989,158.107788 
	C147.363892,163.140976 144.098282,166.545792 142.883530,170.312790 
	C141.813553,173.630875 138.762573,176.257156 136.993164,179.416748 
	C134.999786,182.976227 133.697830,186.926987 131.660309,190.456543 
	C129.532089,194.143219 126.619759,197.380997 124.532722,201.086761 
	C121.765877,205.999573 119.591698,211.242569 116.931458,216.220032 
	C114.371628,221.009628 111.517120,225.641739 108.411301,231.000000 
	C119.737267,231.000000 130.173370,231.000000 140.609467,231.000000 
	C154.585083,231.000000 168.561523,231.078506 182.535675,230.935806 
	C185.438934,230.906158 187.342789,231.431961 188.850800,234.231232 
	C195.351715,246.298737 202.093887,258.236267 208.878967,270.790680 
	C209.009705,271.360260 208.999573,271.833893 208.999573,271.833923 
z"/>
<path fill="#403F41" opacity="1.000000" stroke="none" 
	d="
M153.957153,141.113998 
	C150.970795,136.400787 147.888290,131.745193 145.021225,126.960510 
	C140.976501,120.210495 137.091232,113.364960 133.553925,106.202118 
	C134.830612,105.189323 135.993484,104.713013 136.502090,103.850761 
	C139.539795,98.700806 142.399185,93.446152 145.368744,88.255432 
	C159.884628,62.882107 174.396927,37.506653 188.995209,12.180779 
	C189.793930,10.795078 191.355927,9.849339 193.036194,8.247296 
	C199.452255,19.355350 205.465439,29.662376 211.303757,40.067520 
	C211.777985,40.912708 211.381622,42.608810 210.833939,43.603420 
	C208.191422,48.402340 205.356857,53.095463 202.593246,57.827766 
	C186.380783,85.589592 170.169098,113.351875 153.957153,141.113998 
z"/>
<path fill="#403F41" opacity="1.000000" stroke="none" 
	d="
M153.978333,141.411484 
	C170.169098,113.351875 186.380783,85.589592 202.593246,57.827766 
	C205.356857,53.095463 208.191422,48.402340 210.833939,43.603420 
	C211.381622,42.608810 211.777985,40.912708 211.303757,40.067520 
	C205.465439,29.662376 199.452255,19.355350 193.036194,8.247296 
	C191.355927,9.849339 189.793930,10.795078 188.995209,12.180779 
	C174.396927,37.506653 159.884628,62.882107 145.368744,88.255432 
	C142.399185,93.446152 139.539795,98.700806 136.502090,103.850761 
	C135.993484,104.713013 134.830612,105.189323 133.568512,105.784454 
	C133.112350,103.984856 132.375015,101.860695 133.105469,100.562286 
	C144.127319,80.970520 155.316681,61.472698 166.520493,41.983734 
	C173.854370,29.226482 181.276459,16.519955 188.655319,3.788556 
	C191.212784,-0.624048 192.906982,3.168606 193.850845,4.732913 
	C198.274902,12.065049 202.338867,19.613909 206.561096,27.068565 
	C209.272324,31.855457 212.173004,36.542377 214.682602,41.431282 
	C215.353699,42.738663 215.552628,44.999767 214.866974,46.186901 
	C202.084595,68.317787 189.069443,90.314072 176.250885,112.424271 
	C170.253448,122.769028 164.568237,133.294785 158.108307,143.760803 
	C156.611725,143.536057 155.748352,143.289017 154.885010,143.041977 
	C154.589828,142.597641 154.294662,142.153305 153.978333,141.411484 
z"/>
<path fill="#403F41" opacity="1.000000" stroke="none" 
	d="
M124.903778,123.657608 
	C123.459000,123.994194 122.084648,123.987930 120.297897,123.969620 
	C120.624321,122.714592 121.363159,121.471619 122.417007,119.698677 
	C123.430458,121.131767 124.202339,122.223267 124.903778,123.657608 
z"/>
<path fill="#403F41" opacity="1.000000" stroke="none" 
	d="
M154.938141,143.365173 
	C155.748352,143.289017 156.611725,143.536057 157.790985,143.916168 
	C156.791245,146.321686 155.737442,146.333160 154.938141,143.365173 
z"/>
<path fill="#403F41" opacity="1.000000" stroke="none" 
	d="
M35.338058,271.676392 
	C35.351028,271.410431 35.564774,271.354004 35.778519,271.297607 
	C35.698624,271.493713 35.618729,271.689850 35.338058,271.676392 
z"/>
<path fill="#403F41" opacity="1.000000" stroke="none" 
	d="
M209.270462,271.869568 
	C208.999573,271.833893 209.009705,271.360260 209.026291,271.123779 
	C209.209030,271.226654 209.375183,271.565948 209.270462,271.869568 
z"/>
<path fill="#403F41" opacity="1.000000" stroke="none" 
	d="
M364.654022,306.391968 
	C368.579041,313.467682 372.309570,320.230347 376.595581,328.000000 
	C369.653870,328.000000 363.892822,328.000031 358.131775,328.000000 
	C350.803986,327.999939 343.471222,328.143890 336.152283,327.889465 
	C334.503082,327.832123 332.162872,326.821503 331.390625,325.512390 
	C320.851074,307.645813 310.495422,289.669952 300.226868,271.645630 
	C299.418060,270.225922 298.780975,267.811157 299.434265,266.594604 
	C305.847107,254.651947 312.550690,242.865417 320.084412,229.403580 
	C335.367432,255.810944 349.913483,280.944916 364.654022,306.391968 
z"/>
</svg>