<?xml version="1.0" encoding="UTF-8"?>
<svg id="Layer_2" data-name="Layer 2" xmlns="http://www.w3.org/2000/svg" viewBox="0 0 423.89 75.16">
  <defs>
    <style>
      .cls-1 {
        fill: #819e72;
      }

      .cls-1, .cls-2, .cls-3, .cls-4, .cls-5 {
        fill-rule: evenodd;
      }

      .cls-1, .cls-2, .cls-3, .cls-4, .cls-5, .cls-6 {
        stroke-width: 0px;
      }

      .cls-2 {
        fill: #b32936;
      }

      .cls-3 {
        fill: #f3c492;
      }

      .cls-4 {
        fill: #396f9b;
      }

      .cls-5, .cls-6 {
        fill: #eb5e50;
      }
    </style>
  </defs>
  <g id="Layer_1-2" data-name="Layer 1">
    <g>
      <path class="cls-6" d="M40.53,73.71c.1,0,.19-.06.23-.15l22.34-50.79v38.89c0,1.81-.08,3.24-.34,4.38-.25,1.1-.66,1.92-1.32,2.53-1.36,1.25-3.74,1.63-7.79,1.81-.13,0-.24.12-.24.25v2.84c0,.14.11.25.25.25h29.48c.14,0,.25-.11.25-.25v-2.84c0-.14-.11-.25-.25-.25h-1.01c-1.44,0-2.78-.02-3.97-.25-1.14-.21-2.13-.61-2.88-1.38-1.01-1.03-1.59-2.72-1.59-5.44V22.59c0-2.66.31-4.29,1.17-5.3.64-.74,1.57-1.13,2.88-1.37,1.37-.25,3.14-.32,5.4-.4.13,0,.24-.11.24-.25v-2.84c0-.14-.11-.25-.25-.25h-20.39c-.1,0-.19.06-.23.15l-20.87,46.61L21.07,12.33c-.04-.09-.13-.15-.23-.15H.25c-.14,0-.25.11-.25.25v2.84c0,.13.11.24.24.25,2.13.08,3.85.2,5.2.54,1.31.32,2.28.84,2.95,1.74.92,1.22,1.3,3.12,1.3,6.08v37.24c0,3.17-.65,5.42-2.16,6.91-1.52,1.5-3.89,2.22-7.29,2.35-.13,0-.24.12-.24.25v2.84c0,.14.11.25.25.25h23.52c.14,0,.25-.11.25-.25v-2.84c0-.13-.1-.24-.24-.25-3.84-.16-6.35-1.04-7.77-2.77-.94-1.15-1.4-2.66-1.48-4.57V22.49c3.29,7.49,22.44,51.06,22.44,51.06.04.09.13.15.23.15h3.33Z"/>
      <polygon class="cls-2" points="121.54 49.22 127.11 39.53 146.75 73.7 77.09 73.7 82.38 64.39 130.3 64.39 121.54 49.22 121.54 49.22"/>
      <polygon class="cls-3" points="147.99 49.63 161.84 73.7 151.2 73.7 142.65 58.99 147.99 49.63 147.99 49.63"/>
      <polygon class="cls-1" points="145.78 45.75 140.39 55.16 127.21 32.05 118.53 47.15 107.54 47.15 127.09 13.13 145.78 45.75 145.78 45.75"/>
      <polygon class="cls-5" points="104.21 26.54 84.87 60.16 123.52 60.16 118.42 51.22 100.89 51.22 109.63 35.97 104.21 26.54 104.21 26.54"/>
      <polygon class="cls-4" points="106.34 22.76 111.82 32.2 124.9 9.53 119.44 0 106.34 22.76 106.34 22.76"/>
      <path class="cls-6" d="M197.56,12.4c0-.14-.11-.25-.25-.25h-2.79c-.09,0-.18.05-.22.14-.55,1.17-1.02,2.35-1.72,3.37-4.01-3.08-9.17-4.33-14.42-4.33-9.93,0-18.51,6.08-18.51,15.63,0,4.94,2.15,8.47,5.37,11.25,3.19,2.74,7.44,4.74,11.69,6.65,4.21,1.89,8.43,3.68,11.59,6.02,3.11,2.31,5.19,5.15,5.19,9.19,0,7.45-6.78,10.79-13.63,10.79-9.36,0-16.44-8.31-17.62-16.52-.02-.12-.12-.21-.25-.21h-3.29c-.14,0-.25.11-.25.25v19c0,.14.11.25.25.25h3.29c.11,0,.2-.07.23-.17.56-1.61,1.21-3.22,1.95-4.76,4.99,3.99,10.94,6.46,17.58,6.46,11.93,0,19.81-8.44,19.81-19.06s-8.44-15.34-16.91-19.24c-4.18-1.93-8.36-3.65-11.49-5.82-3.06-2.11-5.12-4.63-5.13-8.19,2.05-6.08,5.84-8.39,10.03-8.39,3.64,0,7.49,1.86,10.48,4.57,2.98,2.71,5.1,6.29,5.25,9.76,0,.13.12.24.25.24h3.29c.14,0,.25-.11.25-.25V12.4h0Z"/>
      <path class="cls-6" d="M262.02,54.52c0-.07-.02-.14-.07-.19s-.11-.08-.18-.08h-3.13c-.13,0-.24.1-.25.23-.2,2.8-1.7,5.69-3.1,8.13-4.29,7.14-10.68,7.38-18.56,7.38-3.61,0-6.2-.43-7.84-1.95-1.08-1-1.73-2.47-2.01-4.59V22.48c0-2.73.31-4.38,1.17-5.38.63-.73,1.57-1.11,2.88-1.32,1.37-.23,3.14-.29,5.4-.37.13,0,.24-.12.24-.25v-2.84c0-.14-.11-.25-.25-.25h-29.58c-.14,0-.25.11-.25.25v2.84c0,.13.11.24.24.25,1.86.08,3.49.15,4.84.4,1.31.24,2.37.64,3.14,1.39,1.04,1.01,1.57,2.63,1.57,5.28v40.72c0,2.65-.51,4.28-1.54,5.28-.77.75-1.82,1.15-3.13,1.39-1.36.25-2.99.32-4.89.4-.13,0-.24.12-.24.25v2.84c0,.14.11.25.25.25h53.61c.13,0,.24-.1.25-.23l1.41-18.85h0Z"/>
      <path class="cls-6" d="M299.64,75.16c19.71,0,34.58-13.32,34.58-31.91s-14.67-31.91-34.58-31.91-34.58,13.13-34.58,31.91,14.77,31.91,34.58,31.91h0ZM299.64,71.5c-17.4,0-22.61-14.36-22.61-28.34s5.31-28.43,22.61-28.43,22.61,14.54,22.61,28.43-5.31,28.34-22.61,28.34h0Z"/>
      <path class="cls-6" d="M381.6,12.34c-.04-.1-.13-.16-.23-.16h-3.08c-.11,0-.2.07-.23.17,0,0-13.07,38.99-15.04,44.86-1.57-5.29-10.99-36.94-10.99-36.94,0,0,0-.01,0-.01-.19-.51-.28-1.02-.28-1.44,0-1.15.61-2.11,2.1-2.7,1.05-.42,2.52-.65,4.51-.65.14,0,.25-.11.25-.25v-2.79c0-.14-.11-.25-.25-.25h-25.6c-.14,0-.25.11-.25.25v2.79c0,.14.11.25.25.25,4.05,0,7.24,1.91,8.4,5.67,0,0,0,0,0,0l16.97,52.34c.03.1.13.17.23.17h4.07c.11,0,.2-.07.23-.17l14.57-44.39,16.33,44.39c.04.1.13.16.23.16h3.67c.11,0,.2-.07.23-.17l16.27-52.34c1.45-4.74,4.85-5.58,9.69-5.67.13,0,.24-.11.24-.25v-2.79c0-.14-.11-.25-.25-.25h-22.13c-.14,0-.25.11-.25.25v2.79c0,.14.11.25.25.25,3.08,0,5.16.19,6.47.71,1.21.48,1.72,1.26,1.72,2.46,0,.88-.59,3-.78,3.71l-10.99,34.92-16.32-44.92h0Z"/>
    </g>
  </g>
</svg>