<?xml version="1.0" encoding="UTF-8"?>
<svg id="Layer_2" data-name="Layer 2" xmlns="http://www.w3.org/2000/svg" viewBox="0 0 423.89 108.57">
  <defs>
    <style>
      .cls-1 {
        fill: #819e72;
      }

      .cls-1, .cls-2, .cls-3, .cls-4, .cls-5 {
        fill-rule: evenodd;
      }

      .cls-1, .cls-2, .cls-3, .cls-4, .cls-5, .cls-6 {
        stroke-width: 0px;
      }

      .cls-2 {
        fill: #b32936;
      }

      .cls-3 {
        fill: #f3c492;
      }

      .cls-4 {
        fill: #396f9b;
      }

      .cls-5, .cls-6 {
        fill: #eb5e50;
      }
    </style>
  </defs>
  <g id="Layer_1-2" data-name="Layer 1">
    <g>
      <path class="cls-6" d="M40.53,73.71c.1,0,.19-.06.23-.15l22.34-50.79v38.89c0,1.81-.08,3.24-.34,4.38-.25,1.1-.66,1.92-1.32,2.52-1.36,1.26-3.74,1.63-7.79,1.81-.13,0-.24.12-.24.25v2.84c0,.14.11.25.25.25h29.48c.14,0,.25-.11.25-.25v-2.84c0-.14-.11-.25-.25-.25h-1.01c-1.44,0-2.78-.02-3.97-.24-1.14-.21-2.13-.61-2.88-1.38-1.01-1.03-1.59-2.72-1.59-5.45V22.59c0-2.66.31-4.29,1.17-5.3.64-.74,1.57-1.13,2.88-1.37,1.37-.25,3.14-.32,5.4-.4.13,0,.24-.12.24-.25v-2.84c0-.14-.11-.25-.25-.25h-20.39c-.1,0-.19.06-.23.15l-20.87,46.61L21.07,12.33c-.04-.09-.13-.15-.23-.15H.25c-.14,0-.25.11-.25.25v2.84c0,.13.11.24.24.25,2.13.08,3.85.2,5.2.54,1.31.32,2.28.84,2.95,1.74.92,1.22,1.3,3.12,1.3,6.08v37.24c0,3.16-.65,5.42-2.16,6.91-1.52,1.5-3.89,2.22-7.29,2.35-.13,0-.24.12-.24.25v2.84c0,.14.11.25.25.25h23.52c.14,0,.25-.11.25-.25v-2.84c0-.13-.1-.24-.24-.25-3.84-.16-6.35-1.04-7.77-2.77-.94-1.15-1.4-2.66-1.48-4.57V22.49c3.29,7.49,22.44,51.06,22.44,51.06.04.09.13.15.23.15h3.33Z"/>
      <polygon class="cls-2" points="121.54 49.22 127.11 39.53 146.75 73.7 77.09 73.7 82.38 64.39 130.3 64.39 121.54 49.22 121.54 49.22"/>
      <polygon class="cls-3" points="147.99 49.63 161.84 73.7 151.2 73.7 142.65 58.99 147.99 49.63 147.99 49.63"/>
      <polygon class="cls-1" points="145.78 45.75 140.39 55.16 127.21 32.05 118.53 47.15 107.54 47.15 127.09 13.13 145.78 45.75 145.78 45.75"/>
      <polygon class="cls-5" points="104.21 26.54 84.87 60.16 123.52 60.16 118.42 51.22 100.89 51.22 109.63 35.97 104.21 26.54 104.21 26.54"/>
      <polygon class="cls-4" points="106.34 22.76 111.82 32.21 124.9 9.53 119.44 0 106.34 22.76 106.34 22.76"/>
      <path class="cls-6" d="M197.56,12.4c0-.14-.11-.25-.25-.25h-2.79c-.09,0-.18.06-.22.14-.55,1.17-1.02,2.35-1.72,3.37-4.01-3.08-9.17-4.33-14.42-4.33-9.93,0-18.51,6.08-18.51,15.63,0,4.94,2.15,8.48,5.37,11.25,3.19,2.74,7.44,4.74,11.69,6.65,4.21,1.89,8.43,3.68,11.59,6.02,3.11,2.31,5.19,5.15,5.19,9.19,0,7.45-6.78,10.79-13.63,10.79-9.36,0-16.44-8.31-17.62-16.52-.02-.12-.12-.21-.25-.21h-3.29c-.14,0-.25.11-.25.25v19c0,.14.11.25.25.25h3.29c.11,0,.2-.07.23-.17.56-1.61,1.21-3.22,1.95-4.76,4.99,3.99,10.94,6.46,17.58,6.46,11.93,0,19.81-8.43,19.81-19.06s-8.44-15.34-16.91-19.24c-4.18-1.93-8.36-3.66-11.49-5.82-3.06-2.11-5.12-4.63-5.13-8.19,2.05-6.08,5.84-8.39,10.03-8.39,3.64,0,7.49,1.85,10.48,4.57,2.98,2.71,5.1,6.29,5.25,9.76,0,.13.12.24.25.24h3.29c.14,0,.25-.11.25-.25V12.4h0Z"/>
      <path class="cls-6" d="M262.02,54.52c0-.07-.02-.14-.07-.19-.05-.05-.11-.08-.18-.08h-3.13c-.13,0-.24.1-.25.23-.2,2.8-1.7,5.69-3.1,8.13-4.29,7.14-10.68,7.38-18.56,7.38-3.61,0-6.2-.43-7.84-1.95-1.08-1-1.73-2.47-2.01-4.59V22.48c0-2.73.31-4.38,1.17-5.38.63-.74,1.57-1.11,2.88-1.33,1.37-.23,3.14-.29,5.4-.37.13,0,.24-.12.24-.25v-2.84c0-.14-.11-.25-.25-.25h-29.58c-.14,0-.25.11-.25.25v2.84c0,.13.11.24.24.25,1.86.08,3.49.15,4.84.4,1.31.24,2.37.64,3.14,1.39,1.04,1.01,1.57,2.63,1.57,5.28v40.72c0,2.65-.51,4.28-1.54,5.28-.77.75-1.82,1.15-3.13,1.39-1.36.25-2.99.32-4.89.4-.13,0-.24.12-.24.25v2.84c0,.14.11.25.25.25h53.61c.13,0,.24-.1.25-.23l1.41-18.85h0Z"/>
      <path class="cls-6" d="M299.64,75.16c19.71,0,34.58-13.32,34.58-31.91s-14.67-31.91-34.58-31.91-34.58,13.14-34.58,31.91,14.77,31.91,34.58,31.91h0ZM299.64,71.5c-17.4,0-22.61-14.36-22.61-28.34s5.31-28.43,22.61-28.43,22.61,14.54,22.61,28.43-5.31,28.34-22.61,28.34h0Z"/>
      <path class="cls-6" d="M381.6,12.34c-.04-.1-.13-.16-.23-.16h-3.08c-.11,0-.2.07-.23.17,0,0-13.07,38.99-15.04,44.86-1.57-5.29-10.99-36.94-10.99-36.94,0,0,0,0,0-.01-.19-.51-.28-1.02-.28-1.44,0-1.15.61-2.11,2.1-2.7,1.05-.42,2.52-.65,4.51-.65.14,0,.25-.11.25-.25v-2.79c0-.14-.11-.25-.25-.25h-25.6c-.14,0-.25.11-.25.25v2.79c0,.14.11.25.25.25,4.05,0,7.24,1.91,8.4,5.67,0,0,0,0,0,0l16.97,52.34c.03.1.13.17.23.17h4.07c.11,0,.2-.07.23-.17l14.57-44.39,16.33,44.4c.04.1.13.16.23.16h3.67c.11,0,.2-.07.23-.17l16.27-52.34c1.45-4.74,4.85-5.58,9.69-5.67.13,0,.24-.11.24-.25v-2.79c0-.14-.11-.25-.25-.25h-22.13c-.14,0-.25.11-.25.25v2.79c0,.14.11.25.25.25,3.08,0,5.16.19,6.47.71,1.21.48,1.72,1.26,1.72,2.46,0,.88-.59,3-.78,3.71l-10.99,34.92-16.32-44.92h0Z"/>
      <path class="cls-6" d="M297.72,82.53c-.02.07-.04.16-.06.27-.02.11-.03.22-.03.34,0,.07.03.18.08.32-.02.17-.04.4-.05.7-.02.3-.06.55-.12.74-.02.12-.07.34-.16.65-.09.32-.19.57-.3.76-.05.1-.09.22-.13.36-.02.14-.09.36-.22.64-.12.28-.21.5-.25.67-.02.07-.07.15-.16.24-.08.09-.14.17-.19.24v.18s-.41.73-.41.73c-.13.32-.27.58-.41.8-.05.07-.21.34-.5.79-.29.45-.62.84-1,1.16-.07.1-.31.4-.73.92-.44.47-.74.87-.9,1.21l-.49.59c-.53.61-.88,1-1.05,1.15-.16.39-.28.74-.37,1.05.02.05.04.13.04.25,0,.12-.02.27-.08.45-.05.18-.09.33-.11.45v.14c-.06.1-.1.22-.09.36,0,.17.12.36.34.57.98-.27,2.13-.78,3.47-1.54,1.34-.76,2.33-1.47,2.99-2.14.09-.1.21-.15.36-.15.17,0,.32.05.45.15.13.1.2.23.21.37,0,.1-.05.23-.17.4-1.29,1.07-2.34,1.83-3.14,2.28-.8.45-1.93.95-3.38,1.5.08.14.2.38.36.73.17.34.3.67.39.98.09.31.14.61.15.9l-.06.29.15.1c.03.17.05.43.06.79.04,1.37-.33,2.59-1.09,3.67-.1.05-.2.14-.32.26-.12.08-.24.19-.35.33-.31.22-.62.34-.93.35-.29,0-.6-.07-.94-.23-.12-.14-.29-.3-.5-.47-.21-.18-.38-.34-.5-.51-.2-.26-.32-.53-.35-.82-.08-.33-.2-.64-.35-.93-.05-.17-.08-.37-.09-.61,0-.24-.01-.43-.02-.58-.03-.24-.04-.47-.02-.68.02-.22.01-.44-.02-.68v-.14c0-.22.03-.54.11-.98,0-.05.01-.11.05-.18.03-.07.05-.13.05-.18-.03-.1,0-.44.08-1.05l.39-2.82c.04-.29.06-.52.05-.69.02-.07.06-.15.1-.24.05-.09.08-.16.1-.24l.03-.11s0-.11-.02-.2c-.02-.08,0-.15.05-.2.02-.02.04-.07.05-.13.01-.06.03-.1.05-.13.02-.07.04-.16.07-.27.02-.11.03-.23.02-.38,0-.05.03-.13.1-.24.07-.11.08-.21.03-.31.11-.2.19-.44.23-.73.08-.39.19-.65.3-.8l.14-.08s-.01-.06-.04-.11c-.02-.05-.04-.09-.04-.14,0-.07,0-.12.03-.14.23-.34.46-.92.67-1.75l.13-.4c.41-.95.74-1.8,1.01-2.55.49-1.24,1.16-2.41,1.99-3.51.07-.12.18-.27.35-.44.16-.17.29-.33.38-.48.14-.15.21-.22.21-.22.02-.22.11-.38.27-.49.16-.11.28-.19.35-.24.16-.29.37-.55.63-.77.26-.22.41-.36.46-.41.09-.05.23-.11.41-.19.18-.08.31-.13.41-.16l.18.03s.05-.04.09-.04c.04,0,.07-.01.09-.04.02-.02.1-.04.22-.04.41.23.65.35.69.38h-.04s0,.01,0,.04c0,.02.01.04.04.04.24.09.38.22.41.39,0,.19,0,.34-.02.43l-.1.15s.06.03.11.03v-.04s.11.21.11.21h0ZM296.15,84.37c.04-.38.08-.65.12-.8-.03-.14-.07-.28-.12-.41-.05-.13-.09-.27-.12-.41-.61.47-1.35,1.56-2.22,3.27-.05,0-.12.03-.21.08,0,.02,0,.05.02.09.01.04,0,.08-.01.13l-.68,1.64c-.13.36-.36.91-.68,1.64-.07.15-.16.36-.27.64-.11.28-.23.5-.34.68,0,0,0,.01-.02.04-.01.02,0,.04.02.04v.11c0,.1,0,.19-.04.29-.03.1-.06.17-.08.22,0,.07.03.15.08.25,0,0-.11.08-.32.22,0,.05.02.09.04.13.02.04.05.06.07.09,0,.05-.02.12-.07.22-.04.15,0,.23.12.25l.14-.11.32-.3.77-.96c.07-.07.14-.18.23-.31.08-.13.17-.23.26-.28.1-.05.17-.15.22-.31.06-.16.11-.26.15-.31v.04c.16-.27.38-.67.65-1.21.11-.29.28-.6.52-.91.36-.73.57-1.14.61-1.24l.44-1.13c.02-.1.06-.25.11-.47.05-.22.13-.39.22-.51l.07-.15v-.22h0ZM294.76,88.55l-.07.04.04.04.03-.07h0ZM293.54,90.2c.05.07.1.08.15.03l-.15-.03h0ZM289.7,101.15l.04-.04-.04-.04v.07h0ZM290.12,101.97c0-.07-.03-.15-.1-.23-.06-.08-.11-.15-.13-.2h-.07c-.19,0-.26.09-.21.26,0,.24-.03.6-.11,1.08-.04.27-.08.64-.11,1.12,0,.19,0,.4-.02.61-.02.22-.02.42-.02.61,0,.26.05.51.13.75,0,.07.01.17.03.31.02.13.05.28.1.45.03.05.11.1.26.17l.24-.37c.06-.29.12-.47.17-.54.02-.14.06-.34.11-.6.05-.25.08-.46.07-.63l-.08-1.69c0-.12-.05-.29-.14-.52-.09-.23-.13-.41-.11-.56v-.04h0ZM288.29,107.49s0,.07,0,.14c0,.07.04.12.11.14.05-.14,0-.24-.11-.28h0Z"/>
      <path class="cls-6" d="M308.29,94.73c.19-.2.44-.3.75-.31.19,0,.35.03.47.1.12.07.18.18.19.32,0,.12-.06.29-.2.51-1.25,1.69-2.82,2.56-4.72,2.61-.55.02-1.18-.06-1.88-.24-.05.05-.18.26-.41.62-.25.41-.4.65-.45.7-.11.22-.26.4-.45.53-.19.14-.38.26-.58.38-.2.11-.35.21-.44.28-.28.18-.45.28-.5.3-.22.05-.6.13-1.15.21h-1.26c-.39-.26-.65-.43-.77-.52-.17-.12-.3-.26-.37-.44s-.16-.4-.23-.66c-.08-1.01-.07-1.79.02-2.36.09-.57.29-1.06.59-1.48.1,0,.22.02.36.06.09-.05.2-.12.32-.22.1,0,.17,0,.22.03.02.02.09.07.18.14.1.07.2.09.29.06.05-.05.09-.15.14-.29l-.12-.28c.06-.6.22-1.22.49-1.85.32-.7.79-1.2,1.44-1.48.07-.05.17-.12.3-.22.13-.1.25-.16.37-.19.33-.06.59-.09.75-.09.26,0,.54.02.83.08.63.3,1.11.75,1.44,1.37.12.19.22.43.29.73.07.3.08.56.04.77l-.06.54c-.04.19-.06.35-.06.47.05.02-.02.28-.21.78-.19.5-.27.75-.25.74.41.08.82.12,1.23.11.5-.01.97-.15,1.41-.4.44-.25,1.1-.73,2-1.42h0ZM302.84,91.82c.07.07.13.08.18.03l-.11-.07-.07.04h0ZM302.16,93.42c.04-.19.06-.33.06-.4,0-.29-.13-.6-.35-.93-.02-.02-.1-.06-.22-.1-.23.2-.41.34-.53.41-.04.22-.1.34-.17.36-.12.1-.2.23-.24.4-.04.17-.07.27-.06.29l-.15,1.23c.05.12.11.23.17.34.06.11.12.2.17.27.1.04.24.14.44.28.15.09.28.09.4-.01.09-.22.17-.43.23-.64.07-.21.13-.41.2-.6.02-.14.03-.31.02-.49,0-.18,0-.32.02-.41h0ZM298.33,95.48s.04,0,.04-.02c0-.01,0-.02,0-.02l-.07-.03.04.07h0ZM300.46,95.52c0-.07-.03-.08-.07-.03l.07.03h0ZM302.15,95.48l-.03.04h.04s0-.04,0-.04h0ZM300.8,97.68c.07-.07.15-.14.25-.19l-.08-.18c-.58-.22-1.01-.5-1.28-.83-.05,0-.07-.01-.07-.03v-.07s-.11-.11-.11-.11c-.15-.19-.3-.4-.45-.64l.19.46c-.1,0-.18.02-.25.04-.02.1-.06.22-.12.38-.06.16-.09.29-.12.38,0,.1,0,.22,0,.38,0,.16-.03.3-.08.42-.02.07-.02.17,0,.29.01.12.01.22-.01.29v.14c0,.12.04.32.09.61l.18.18c.52-.26.83-.41.92-.46l.38-.44c.07-.07.22-.17.46-.3l.1-.33h0ZM299.43,96.24c-.1,0-.16-.04-.18-.14.12,0,.18.04.18.14h0ZM299.51,96.27l.11.14h-.04s-.05-.05-.15-.14v-.04s.07.03.07.03h0ZM300.97,97.27v.04s0-.04,0-.04h0ZM300.98,97.35v-.04s0,.04,0,.04h0ZM300.94,97.35h.04s-.04,0-.04,0h0ZM297.41,99.97l-.04-.07-.03.07s.03.07.07.07v-.07h0Z"/>
      <path class="cls-6" d="M322.13,95.43c.29-.13.54-.19.75-.2.22,0,.4.03.54.09.15.07.22.16.22.28,0,.07-.07.17-.21.29-.54,1.21-1.37,2.44-2.47,3.67-1.11,1.23-2.25,1.86-3.42,1.89-.43.01-.87-.08-1.31-.29-.39-.08-.68-.26-.88-.52-.05-.05-.2-.16-.44-.35-.17-.21-.32-.46-.44-.74-.11-.29-.2-.54-.25-.75-.05-.21-.11-.39-.16-.54l-.77.89c-.4.42-.71.7-.95.85-.19.1-.5.33-.92.67-.12.03-.34.07-.66.13-.32.06-.63.09-.92.1-.24,0-.42,0-.54-.02-.05-.02-.14-.06-.27-.1-.13-.04-.25-.1-.35-.17-.46-.28-.76-.62-.89-1.02-.18-.45-.28-.86-.28-1.22,0-.12.01-.3.06-.54.02-.05.03-.11.01-.18-.01-.07-.02-.13-.02-.18.07-1.08.26-2.02.57-2.81.32-.79.73-1.37,1.25-1.75l.79-.13s.17.02.36.06l.4.06c.29.14.42.33.38.57l-.96,2.94c-.09.19-.13.41-.13.65-.02.17-.08.4-.2.69v-.04c0,.07-.02.18-.06.33l-.03.07.22.32c.03.1,0,.18-.1.26,0-.02,0-.05,0-.09,0-.04-.04-.03-.11.02.02,0,.06.02.11.07l-.03.14c0,.19.12.39.34.6.14-.05.28-.14.43-.26.14-.12.25-.21.32-.26.21-.22.41-.38.6-.48.16-.32.44-.66.84-1.03.26-.25.48-.53.68-.85.19-.32.32-.51.36-.59.05-.05.13-.21.24-.48l.21-.08s0-.08.01-.16c0-.08.05-.14.12-.17l.2-.51c.07-.05.17-.11.3-.17.13-.06.23-.15.3-.24l.36.13.32-.22s.06-.04.11-.04c.05,0,.13.03.26.1.12.07.23.11.33.13l.25.07c.24.14.33.3.26.5-.11.27-.21.58-.3.93-.09.35-.14.59-.16.71-.02.17-.04.38-.06.63-.02.25-.07.46-.16.63.03.02.04.07.04.14,0,.07,0,.16-.03.27-.02.11-.02.19,0,.23.03.07.04.17.04.29,0,.12.04.21.12.29.1.07.15.16.15.27,0,.11,0,.19,0,.23-.05,0-.08.02-.11.06-.02.04-.02.08,0,.13.05.19.15.28.3.28h-.04s.04.11.04.11c.1.02.14-.02.14-.11l.33.1c.07.02.13.05.16.08.04.04.07.07.09.09.67.03,1.37-.37,2.09-1.21.72-.84,1.59-2.02,2.6-3.57h0ZM309.99,97.71s0-.04-.02-.04h-.02s.07.07.07.07c0-.02-.01-.04-.04-.03h0ZM314.07,98.07l-.04-.03v.04s.04,0,.04,0h0ZM313.3,98.85h-.04s.04.04.04.04v-.04h0ZM309.78,99.27c.05.07.09.07.11,0l-.07-.03-.04.04h0ZM310,99.55l-.04.04h.04s0-.04,0-.04h0ZM316.67,99.62c-.1,0-.15-.04-.15-.14.1,0,.15.04.15.14h0ZM316.67,99.65v-.04s.04,0,.04,0v.04s-.04,0-.04,0h0ZM316.71,99.94v-.29c.07.05.1.1.1.16,0,.06,0,.1,0,.13h-.11ZM315.99,99.85s-.04.06-.03.11c0,.07.09.13.26.17l-.22-.28h0ZM315.32,100.23s.1.03.16.1c.06.07.14.08.24.03-.05-.09-.2-.22-.44-.38.02.05.04.13.04.25h0ZM316.82,99.94h.04s-.04,0-.04,0h0Z"/>
      <path class="cls-6" d="M336.05,94.76c.19-.15.37-.23.53-.23.19,0,.36.06.49.18.14.13.21.28.21.44,0,.12-.02.22-.06.29l-.73.88-2.33,1.9c-.12.1-.34.27-.67.52-.33.25-.64.44-.94.58s-.61.24-.95.3c-.21.17-.52.27-.93.28-.07,0-.18.02-.32.04-.14.03-.27.07-.39.12l-1.38-.29c-.19-.04-.33-.15-.4-.31v.04s-.18-.03-.18-.03c-.22-.21-.37-.48-.45-.82-.16-.57-.24-1-.25-1.29,0-.19,0-.34.02-.43.02-.22.02-.53.01-.94l.18-.15c-.03-.24-.05-.59-.07-1.04-.07,0-.12.01-.14.04-.12.12-.33.35-.65.67-.32.32-.58.64-.78.96-.05.07-.13.16-.26.26-.13.1-.19.22-.19.36-.05.05-.13.12-.25.22-.12.1-.2.21-.24.33-.07.17-.18.34-.35.51-.07.05-.12.14-.14.26-.02.12-.04.2-.07.25-.05.07-.11.18-.19.33-.08.15-.15.26-.22.33-.07.1-.14.23-.22.38-.08.16-.14.29-.19.38-.14.15-.32.3-.53.45l-.4-.06-.32.15-.48-.28-.36.12-.33-.24c-.03-.09-.04-.23-.05-.39,0-.26.04-.54.16-.83.09-.24.17-.52.23-.83.05-.12.12-.37.21-.74.1-.38.21-.7.35-.96,0-.05,0-.13,0-.25,0-.12,0-.23.03-.33v-.07s-.02-.09-.04-.13c-.02-.03-.05-.08-.07-.12.05-.02.14-.04.29-.04-.15-.14-.24-.13-.29.04.27-1.45.56-2.33.86-2.65l.43.13.43-.05c.1.12.27.27.52.45.16.48.24.83.24,1.07,0,.1-.03.27-.09.51-.07.24-.07.45-.02.61.05-.05.09-.09.14-.11.05-.02.08-.06.11-.11.28-.39.49-.66.63-.81.21-.22.41-.41.6-.58.19-.16.35-.3.49-.43l.88-.89.6-.59c.1,0,.24-.03.43-.07.19-.04.36-.05.5-.03.12.02.27.02.45,0,.18-.02.32-.01.41,0,.22.11.36.3.41.56.03.1.04.21.05.34,0,.13,0,.22,0,.27l-.18.15c.03.07.04.19.05.36,0,.12,0,.22-.03.29-.09.27-.16.57-.21.91-.05.34-.09.57-.11.69l-.16.83c-.04.29-.06.52-.05.68,0,.31.06.58.17.79.03.05.07.26.13.64l.3.39.25.03c.38-.13.63-.22.75-.27,1.11-.49,2.02-1.07,2.73-1.77l.18-.11c.66-.45,1.23-.95,1.72-1.49l.49-.59h0ZM327.48,94.78c.1,0,.11-.04.03-.11-.02.02-.03.06-.03.11h0ZM326.94,94.73h-.07s0,.04,0,.04l.07-.04h0ZM327.8,98.48s-.04.13-.06.33c.04-.12.07-.22.06-.29v-.04h0ZM328.14,98.94l-.36-.06.29.14.07-.07h0ZM328.48,99.47s-.1-.15-.23-.32c0,.12-.02.23-.06.33h.29ZM328.62,99.54l-.07-.03.08.11v-.07h0Z"/>
      <path class="cls-6" d="M349.13,93.47c.09-.34.29-.51.6-.52.22,0,.4.08.57.27.16.19.21.41.15.68-.35,1.21-.95,2.47-1.81,3.78-.85,1.31-1.81,2.4-2.86,3.28-1.06.88-2.09,1.34-3.1,1.36-1.1.03-2.07-.51-2.89-1.61-.15-.36-.37-.7-.64-1.03-.19.03-.31.15-.35.37-.17.1-.44.27-.81.51-.38.24-.73.4-1.07.48-.17.05-.39.09-.68.11-.29.02-.53.05-.72.07-.15-.09-.34-.19-.58-.29-.24-.1-.43-.23-.55-.4l-.31-.89s.01-.11.05-.2c.03-.08,0-.14-.09-.16l-.07-.03c.14-.99.26-1.64.34-1.97.09-.33.18-.53.27-.6.2-.44.46-.87.76-1.3.3-.43.75-1.01,1.36-1.75.09-.15.31-.3.65-.45.34-.15.71-.24,1.09-.25.41-.01.79.08,1.16.26.04-.14.07-.25.06-.33.02-.1.07-.25.15-.47.08-.22.12-.42.11-.62.02-.12.06-.31.11-.56.05-.25.12-.48.22-.67.04-.12.09-.27.13-.44.04-.17.09-.31.13-.44l.49-1.81.4-1.16s0-.05.03-.09c.02-.04.05-.07.07-.09.15-.51.25-.82.3-.94.15-.58.28-1.02.4-1.31l.4-1.05c.32-.73.54-1.29.67-1.68.04-.15.13-.36.27-.66.14-.29.21-.52.23-.69.09-.12.21-.33.34-.62.14-.29.26-.5.38-.62.02-.02.03-.07.02-.13-.01-.06,0-.1.01-.13.12-.12.25-.32.4-.59.15-.27.27-.46.36-.59.09-.08.18-.14.25-.19.07-.05.13-.09.18-.11l.32-.3c.14-.05.29-.09.45-.12.16-.03.29-.06.41-.08.2.09.34.17.44.24.02-.02.12-.06.29-.12.1.02.18.07.24.14.06.07.12.13.17.17,0,.02.03.1.1.23.06.13.05.24-.04.34.1.14.2.25.3.32,0,.12.03.32.09.61l-.21.18c.07.05.14.12.19.21.01.48,0,.82,0,1.01-.02.19-.09.39-.2.58.05,0,.08,0,.11.03.02.02.05.05.07.07l-.14.29s-.02.12-.07.22c-.04.1-.05.19-.03.29.06.33.05.69-.02,1.06-.07.38-.12.62-.14.74-.04.27-.12.57-.24.91-.12.34-.22.61-.28.8-.07.22-.17.5-.3.85-.13.35-.21.67-.23.96-.09.08-.15.17-.15.29,0,.12-.02.22-.05.29-.09.31-.19.52-.31.62-.02.03-.03.06-.01.11.01.05,0,.1-.01.14-.02.1-.06.24-.11.42-.05.18-.12.33-.19.46-.05.1-.09.24-.13.42-.04.18-.11.32-.2.42-.05.07-.09.17-.14.29-.04.12-.09.24-.13.36-.14.1-.26.28-.36.53-.1.26-.2.46-.29.6-.05.07-.11.2-.19.37-.08.17-.17.32-.26.44-.02.07-.08.16-.17.26-.09.1-.17.2-.24.29,0,0,0,.01,0,.04,0,.02.01.05.04.07-.02.05-.06.09-.12.13-.06.04-.06.09-.01.16,0,0-.07.11-.21.33,0-.02,0-.06,0-.11,0-.05-.04-.05-.11,0l.11.07c-.08.46-.29.8-.62,1.02.05.1.05.17,0,.22-.05.07-.11.2-.21.38-.09.18-.2.32-.31.42-.12.15-.24.33-.38.55-.14.22-.27.39-.38.52-.14.1-.29.25-.44.46-.15.21-.27.36-.36.46.03.26.05.69.07,1.29.03.1.09.29.2.57s.27.52.49.71c.34.25.72.38,1.13.36.77-.02,1.59-.45,2.47-1.29.88-.84,1.67-1.85,2.37-3.02.7-1.17,1.18-2.19,1.45-3.07h0ZM347.53,77.2c.07.05.12.06.15.03l.07-.07h-.14s-.07.04-.07.04h0ZM347.9,77.51l.04-.04h-.04s0,.04,0,.04h0ZM341.62,92.96c-.14.15-.21.35-.2.62l.04.32-.24.47c.1,0,.17.02.22.07.12-.15.27-.37.45-.66.32-.42.57-.82.72-1.21.07-.17.18-.37.34-.59.16-.24.38-.63.65-1.17.12-.12.16-.23.13-.33l-.04-.14c0-.07.02-.16.08-.27.06-.11.08-.19.08-.24.04-.15.09-.28.15-.4.06-.12.1-.23.12-.33.36-.87.62-1.53.77-1.97l.2-.4.1-.43c.06-.34.2-.7.4-1.09.02-.05.04-.11.05-.18.01-.07.03-.13.05-.18.07-.07.11-.11.11-.11-.07,0-.12,0-.14-.03,0-.05,0-.11,0-.2,0-.08,0-.15.03-.2.11-.27.2-.59.26-.98.06-.39.11-.67.16-.87.04-.19.1-.45.18-.76.08-.31.11-.57.11-.76,0-.14-.02-.25-.05-.32.11-.22.17-.5.16-.83l-.05-.54-.05-.36c-.21.17-.44.53-.69,1.06-.13.39-.27.66-.41.8-.02.07-.03.16-.03.27s-.03.19-.1.24c0,0-.02-.02-.07-.07l-.03.07s.04.03.05.02c.01-.01.03-.02.05-.02-.02.03-.04.05-.05.07-.01.02-.03.06-.05.11-.04.15-.09.34-.15.58-.05.24-.13.43-.22.58-.09.17-.17.39-.25.67-.08.28-.14.49-.18.63-.11.39-.19.64-.23.76-.05.12-.1.26-.17.42-.07.16-.14.33-.2.53-.14.32-.26.66-.37,1.02-.02.17-.07.34-.17.51-.09.17-.16.29-.21.37l-.03.11c0,.14-.03.3-.1.47-.07.17-.11.29-.13.36-.04.17-.08.42-.12.76-.09.34-.16.58-.23.73-.04.15-.09.31-.15.51-.05.19-.1.4-.14.62-.02.12-.05.25-.1.38-.04.13-.08.24-.1.31-.02.07-.07.24-.13.49-.07.25-.1.49-.09.7h0ZM344.94,81.38c.07,0,.11,0,.11.03v-.11s-.11.08-.11.08h0ZM345.61,84.78s.07-.07.07-.07l.04.14s-.09-.07-.11-.07h0ZM339.26,94.75c.04-.17.08-.4.13-.69-.53,0-.93.1-1.2.32-.27.22-.5.51-.68.85-.48.76-.85,1.48-1.09,2.15-.02.07-.1.31-.23.71-.13.4-.21.79-.22,1.18,0,.26,0,.47-.02.61,0,0,.1.09.3.28.38-.15.64-.27.78-.35.07-.1.23-.24.47-.43.25-.19.42-.36.51-.54.33-.2.66-.51.98-.93-.05-.82.04-1.87.27-3.18h0ZM342.9,94.9s.06-.04.11-.04c0-.05-.03-.07-.07-.07l-.03.11h0Z"/>
      <path class="cls-6" d="M362.77,93.2c.09-.19.27-.3.53-.3.26,0,.51.07.75.23.23.16.29.3.17.43-.19.89-.68,1.91-1.46,3.05-.79,1.14-1.71,2.12-2.78,2.94-1.07.82-2.12,1.25-3.15,1.28-.74.02-1.41-.17-2-.56-.03-.05-.08-.09-.15-.14-.07-.05-.12-.09-.15-.14-.05-.17-.12-.33-.21-.5-.09-.17-.15-.31-.17-.43-.15-.31-.24-.63-.28-.96,0-.22,0-.4.02-.56.02-.16.04-.29.06-.41l-.25.08-.87,1.18c-.44.61-.92.96-1.45,1.05l-.32.12c-.6-.08-1-.14-1.19-.18-.07,0-.19-.08-.37-.24-.24-.11-.43-.37-.56-.78-.16-.6-.27-1.11-.33-1.54l-.05-.4c0-.17.01-.35.06-.54.02-.14.05-.37.09-.69.04-.31.12-.58.23-.8-.03-.24.02-.48.14-.72.13-.24.21-.41.26-.51.07-.1.31-.44.73-1.03.09-.2.25-.37.47-.52.22-.15.38-.26.48-.34.14-.12.4-.26.76-.42.37-.15.65-.26.84-.31.22.02.57.02,1.05,0,.7-.02,1.28.2,1.75.67l.28-.15c.1,0,.17.02.22.07.1.14.29.34.56.6-.08.72-.11,1.26-.1,1.62l.05.47-.34.76c-.04.1-.13.34-.27.73.07.07.11.17.12.29,0,.1,0,.19-.03.27-.02.08-.04.16-.06.24-.07.27-.1.58-.12.96-.01.37-.03.65-.05.85.03.07.04.17.04.29l.17.86c.34.21.67.3.98.3.72-.02,1.49-.4,2.31-1.14.82-.74,1.56-1.6,2.22-2.58.66-.98,1.12-1.78,1.39-2.41h0ZM353.73,93.13c.05-.1.13-.24.26-.44.13-.2.18-.39.15-.58-.08-.14-.22-.23-.42-.26-.21-.03-.34-.07-.42-.11-.24,0-.45.08-.64.23-.19.15-.38.33-.58.56-.2.22-.38.41-.54.55-.07.22-.19.56-.39,1.04-.19.47-.32.92-.38,1.33-.12.72-.18,1.27-.17,1.62,0,.26.05.56.13.9.07.07.16.1.26.1.4-.42.7-.76.91-1.03.13-.46.3-.79.51-.99v-.11c0-.14.05-.31.16-.49.12-.18.18-.32.2-.42.16-.37.31-.66.44-.88l.51-1.02h0ZM349.82,98.89s-.01-.05.03-.07l-.11-.03s0,.04.02.05c.01.01.03.03.06.05h0ZM354.76,99.29l-.03.04h.04s0-.04,0-.04h0ZM355.6,99.6c.04-.14,0-.19-.11-.14.07.07.11.12.11.14h0ZM354.88,99.79s.1.07.15.16c.05.08.13.09.25.01,0-.02-.02-.07-.06-.12-.04-.06-.08-.09-.13-.1-.05-.01-.12,0-.21.06h0Z"/>
      <path class="cls-6" d="M375.13,84.4l-.18.11c-.98.22-1.67.35-2.08.38-.31,0-.83.07-1.54.19-.45.06-.78.12-.97.17-.14.12-.42.49-.83,1.1-.02.05-.07.15-.15.31-.08.16-.19.27-.33.35l-.03.07-.07.11-.28.48s-.03.06-.03.11c-.07.05-.15.15-.24.29-.09.15-.19.25-.28.3l-.18.08s.04.11.04.18c-.02.05-.07.12-.14.2-.07.09-.14.14-.21.17l-.08-.11-.07.11h.14c0,.19-.11.41-.34.65-.44.54-.67.82-.7.85-.3.39-.64.79-1.01,1.18-.14.12-.33.36-.56.7-.21.32-.33.77-.36,1.34l-.07.04-.07.15c.01.53-.02,1-.11,1.41-.1.77-.14,1.28-.14,1.52l-.02.72c-.04.34-.06.59-.05.76-.01.38.11.93.37,1.65.18.43.47.7.89.8.52-.28.83-.45.92-.53.3-.37.59-.66.88-.89.23-.2.42-.43.56-.7.14-.22.39-.53.77-.92v.04c.05-.05.07-.09.07-.11,0,0-.02-.02-.07-.07.12-.17.23-.37.34-.6.11-.23.25-.47.41-.71.44-.59.78-1.16,1.03-1.72.02-.1.14-.28.35-.55l.52-.63c.07-.17.17-.26.32-.26.17,0,.33.09.49.27.16.19.25.4.25.64,0,.24-.05.46-.16.65-.02.02-.09.11-.21.26-.12.15-.18.3-.2.47-.09.1-.22.32-.38.66-.18.37-.32.6-.41.7-.23.32-.48.72-.76,1.21-.12.05-.22.17-.32.35-.09.18-.17.3-.24.35-.09.07-.19.18-.3.33-.11.15-.2.27-.3.37l-.63.63-.1.33-.03.07c-.61.47-.98.74-1.09.79-.52.3-1.08.46-1.68.48-.34,0-.72-.04-1.16-.15-.1-.02-.19-.06-.27-.12-.08-.06-.16-.1-.24-.12h.04c-.08-.17-.27-.35-.59-.56,0-.12-.02-.19-.04-.22-.02-.02-.1-.05-.22-.07.05.17.14.26.26.28v.29s-.06,0-.06,0c0,0-.13-.13-.41-.38-.2-.35-.33-.66-.38-.93-.21-.57-.33-1.34-.35-2.3-.01-.41,0-.7.01-.86,0-.14.05-.46.15-.94.32-1.59.61-2.74.88-3.45.19-.24.23-.47.13-.69.11-.17.21-.45.3-.84.06-.36.25-.88.57-1.57.04-.12.11-.3.18-.54.08-.24.15-.44.22-.58.09-.12.18-.3.26-.55.08-.24.16-.42.26-.55.02-.02.03-.05.02-.09-.01-.04-.02-.07-.02-.09-.45.11-.76.18-.93.21-.24.08-.49.12-.75.13-.14,0-.36-.01-.65-.05l-.22-.25s-.12-.09-.29-.21l.17-.37c.23-.22.54-.41.92-.57.38-.15.66-.28.85-.38.62-.09,1.15-.24,1.57-.44.16-.22.28-.43.34-.62.36-.83.66-1.41.89-1.75l.24-.51.14-.18-.04-.04.53-.48v-.18s.17-.18.52-.55c.23-.29.42-.5.56-.63v-.11c.04-.12.13-.2.26-.24.13-.04.21-.07.23-.1.4-.18.87-.25,1.4-.22.14,0,.31.06.51.2.17.07.32.16.44.28.15.24.23.52.24.86,0,.24-.02.47-.09.69l-.05.69-.25.26.07.03s-.07.09-.07.11v-.18s-.03.06-.07.11c.05.05.07.07.07.07v.11c0,.14-.03.28-.09.4-.05.12-.11.3-.2.55-.09.24-.19.45-.31.62l.14.03h.47c.31-.02.54-.05.68-.1.07-.03.2-.03.38-.03.18,0,.32,0,.41-.03.12-.05.26-.07.43-.07.17,0,.29,0,.36,0,.43-.01.81.1,1.13.33l.19.35h0ZM370.17,80.65s-.1-.06-.15-.05c-.05.01-.08.04-.11.09-.04.1-.13.21-.24.33-.12.12-.21.22-.28.29-.21.22-.38.47-.52.75-.14.28-.23.47-.27.57-.18.48-.4.87-.65,1.17.02.02.04.06.04.11,0,.07-.01.16-.05.25-.03.1-.03.17.02.22l.93-.17c.07-.1.15-.22.24-.37.09-.15.18-.32.27-.51l.27-.62c.07-.22.13-.43.2-.64.07-.21.13-.42.2-.63l.06-.36.02-.43h0ZM367.28,81.66v.04s.07,0,.07,0l-.07-.03h0ZM368.18,85.74h-.04s0,.04,0,.04l.04-.04h0ZM367,87.29c.49-.64.8-1.09.94-1.36-.07-.05-.17-.07-.29-.06-.17,0-.32.04-.46.12-.09.15-.16.28-.2.4-.16.29-.32.67-.47,1.13-.02.07-.03.14-.03.22,0,.07,0,.13,0,.18l.52-.63h0ZM368.58,97.58s-.04,0-.04.02v.02-.04s.04,0,.04,0h0ZM368.54,97.62l.04.11s-.06-.02-.11-.07l.07-.04h0ZM364.06,99.65l-.04-.03-.04.04h.07ZM362.85,99.97h.04s0-.04,0-.04l-.03.04h0ZM362.97,100.4c0-.07-.04-.08-.11-.03l.11.03h0ZM364.78,100.71c-.15-.07-.27-.17-.37-.31.02.05.04.13.04.25.02.02.07.05.13.09.06.03.13.03.2-.02h0ZM363.95,100.66s-.04,0-.04-.02v-.02s-.04.01-.04.04h.07ZM363.98,100.7s.01.08.04.09c.02.01.05,0,.07-.02l-.11-.07h0ZM363.27,101.01c.12,0,.17.04.15.14-.1,0-.15-.04-.15-.14h0ZM363.42,101.14s.08.02.11.05c.03.04.03.07,0,.09-.07,0-.11-.04-.11-.14h0ZM363.57,101.28l.04.04h-.07s0-.03,0-.03h.04ZM363.82,101.28c-.02.07-.05.11-.09.11-.04,0-.08-.02-.13-.07l.22-.04h0Z"/>
      <path class="cls-6" d="M375.18,85.99c-.37-.28-.7-.41-.98-.41-.14,0-.28.04-.39.12-.31.11-.53.4-.66.88,0,.02,0,.05-.02.07-.01.02-.03.02-.05,0-.28.29-.44.67-.47,1.13.08.19.15.33.21.43.06.1.18.15.35.17.14.04.27.07.36.06.24,0,.53-.09.86-.24.15.09.27.07.36-.08l.27-.55c.28-.37.41-.74.4-1.13,0-.24-.08-.39-.23-.46h0ZM369.92,96.43c.08.09.11.16.1.2-.01.04-.06.08-.16.13.06.53.12.87.17,1.04.05.17.14.33.25.5.11.16.21.31.28.42.4.49.99.84,1.79,1.03.12.02.31.03.58.02,1.27-.03,2.55-.6,3.84-1.69,1.29-1.09,2.25-2.32,2.89-3.68.07-.15.1-.28.1-.4,0-.17-.06-.3-.17-.39-.11-.09-.24-.14-.38-.13-.31,0-.56.18-.74.52-.71,1.22-1.63,2.31-2.75,3.28-1.13.97-2.04,1.46-2.73,1.48-.29,0-.51-.07-.65-.23-.05-.05-.09-.09-.11-.14-.03-.05-.05-.09-.08-.14l-.09-.68s.02-.07.05-.14c.03-.07.05-.15.05-.22.35-1.19.66-2.11.93-2.76,0-.07.02-.13.07-.18-.03-.05-.04-.12-.04-.21,0-.14,0-.25.03-.32.02-.05.08-.1.18-.15.09-.05.15-.1.18-.15,0-.05.04-.21.13-.47.02-.07.06-.16.1-.27.04-.11.08-.24.1-.38.02-.1.03-.22.03-.36-.07-.09-.28-.3-.63-.63-.07,0-.14.02-.22.04-.07.03-.14.04-.21.04-.15-.09-.23-.13-.26-.1h-.04c-.1,0-.21.03-.34.08-.13.05-.24.04-.34-.03-.07.05-.19.15-.37.3-.18.15-.29.28-.33.4-.05.1-.16.39-.34.89-.18.5-.34,1.05-.49,1.65-.15.6-.27,1.22-.35,1.85h0ZM369.85,96.76s0-.1.03-.16c.02-.06.03-.12.03-.16-.07.05-.1.1-.1.15,0,.05.01.11.04.18h0Z"/>
      <path class="cls-6" d="M390.19,92.49c.19-.2.44-.3.75-.31.19,0,.35.03.47.1.12.07.18.17.19.32,0,.12-.06.29-.2.51-1.25,1.69-2.82,2.56-4.72,2.61-.55.02-1.18-.06-1.88-.24-.05.05-.18.26-.41.62-.25.41-.4.65-.45.7-.11.22-.27.4-.45.53-.19.14-.38.26-.58.38-.2.11-.35.21-.44.28-.28.18-.45.28-.5.3-.21.05-.6.12-1.15.21h-1.26c-.39-.26-.65-.43-.77-.52-.17-.11-.3-.26-.37-.44-.08-.18-.15-.4-.23-.66-.08-1.01-.07-1.79.02-2.36.09-.57.29-1.06.59-1.47.1,0,.22.02.36.06.09-.05.2-.12.32-.22.1,0,.17,0,.22.03.02.02.09.07.18.14.1.07.19.09.29.06.05-.05.09-.15.14-.29l-.12-.29c.05-.6.22-1.22.49-1.85.32-.71.8-1.2,1.44-1.48.07-.05.17-.12.3-.22.13-.1.25-.16.37-.19.33-.06.59-.09.75-.09.26,0,.54.02.83.08.63.3,1.11.75,1.44,1.37.13.19.22.43.29.73.07.3.08.56.04.77l-.06.54c-.04.19-.06.35-.06.47.05.02-.02.28-.21.78-.19.5-.27.75-.25.75.41.08.82.12,1.23.11.5-.01.98-.15,1.41-.4.44-.25,1.1-.73,2-1.42h0ZM384.75,89.58c.07.07.13.08.18.03l-.11-.07-.07.04h0ZM384.07,91.18c.04-.19.06-.33.06-.4,0-.29-.12-.6-.35-.93-.02-.02-.1-.06-.22-.1-.23.2-.41.34-.53.41-.04.22-.1.34-.17.37-.12.1-.2.23-.24.4-.04.17-.06.27-.06.29l-.15,1.23c.05.12.11.23.17.34.06.11.12.2.17.27.1.04.24.14.44.28.15.09.28.09.4-.01.09-.22.17-.43.23-.64.07-.21.13-.41.2-.6.02-.14.03-.31.02-.49,0-.18,0-.32.02-.41h0ZM380.24,93.23s.04,0,.04-.02,0-.02,0-.02l-.07-.03.04.07h0ZM382.36,93.28c0-.07-.03-.08-.07-.03l.07.03h0ZM384.05,93.23l-.03.04h.04s0-.04,0-.04h0ZM382.71,95.43c.07-.07.15-.14.25-.19l-.08-.18c-.58-.22-1.01-.5-1.28-.83-.05,0-.07,0-.07-.03v-.07s-.11-.11-.11-.11c-.15-.19-.3-.4-.45-.64l.19.46c-.1,0-.18.02-.25.04-.02.1-.06.22-.12.38-.05.16-.09.29-.11.38,0,.1,0,.22,0,.38,0,.16-.03.29-.08.42-.02.07-.02.17,0,.29.02.12.01.22-.01.29v.14c0,.12.04.32.09.61l.18.17c.52-.25.83-.41.92-.46l.38-.44c.07-.07.22-.17.46-.3l.1-.33h0ZM381.34,93.99c-.1,0-.16-.04-.18-.14.12,0,.18.04.18.14h0ZM381.41,94.03l.11.14h-.04s-.05-.05-.15-.14v-.04s.07.03.07.03h0ZM382.88,95.03v.04s0-.04,0-.04h0ZM382.88,95.1v-.04s0,.04,0,.04h0ZM382.85,95.1h.04s-.04,0-.04,0h0ZM379.32,97.72l-.04-.07-.03.07s.03.07.07.07v-.07h0Z"/>
      <path class="cls-6" d="M403.57,92.91c.19-.15.36-.23.53-.23.19,0,.36.06.49.18.13.13.21.28.21.45,0,.12-.02.22-.06.29l-.73.88-2.33,1.9c-.12.1-.34.27-.67.52-.33.25-.64.44-.94.58-.3.14-.61.24-.95.3-.21.17-.52.27-.93.28-.07,0-.18.02-.32.05-.14.03-.27.07-.39.12l-1.38-.29c-.19-.04-.33-.15-.4-.31v.04s-.18-.03-.18-.03c-.22-.21-.37-.48-.46-.82-.16-.57-.24-1-.25-1.29,0-.19,0-.34.02-.43.02-.22.02-.53,0-.94l.18-.15c-.03-.24-.05-.59-.06-1.04-.07,0-.12.02-.14.04-.12.12-.33.34-.65.67-.32.32-.58.64-.78.96-.05.07-.13.16-.26.26-.13.1-.19.22-.19.37-.05.05-.13.12-.25.22-.12.1-.2.21-.24.33-.07.17-.18.34-.35.51-.07.05-.12.14-.14.26-.02.12-.04.2-.07.25-.05.07-.11.18-.19.33-.08.15-.15.26-.22.33-.07.1-.14.23-.22.38-.08.16-.14.29-.19.38-.14.15-.32.3-.53.45l-.4-.06-.32.15-.48-.28-.36.12-.33-.24c-.03-.1-.04-.23-.05-.4,0-.26.05-.54.16-.83.09-.24.17-.52.23-.83.04-.12.12-.37.21-.74.1-.38.21-.7.35-.96,0-.05,0-.13,0-.25,0-.12,0-.23.03-.32v-.07s-.02-.09-.04-.12c-.03-.04-.05-.08-.07-.12.05-.02.14-.04.29-.04-.15-.14-.24-.12-.29.04.27-1.45.56-2.33.86-2.65l.44.13.43-.05c.1.12.27.27.52.45.16.48.24.83.24,1.07,0,.1-.03.27-.09.51-.07.24-.07.45-.02.61.05-.05.09-.09.14-.11.05-.02.08-.06.11-.11.28-.39.49-.66.63-.81.21-.22.41-.41.6-.57.19-.16.35-.3.49-.43l.88-.89.6-.59c.1,0,.24-.02.43-.07.19-.04.36-.05.5-.03.12.02.27.02.45,0,.18-.02.32-.01.41,0,.22.11.36.3.41.57.03.1.04.21.04.34,0,.13,0,.22,0,.27l-.18.15c.03.07.04.19.05.36,0,.12,0,.22-.03.29-.09.27-.16.57-.21.91-.05.34-.09.57-.11.69l-.16.83c-.04.29-.06.52-.05.69,0,.31.06.57.17.79.02.05.07.26.13.64l.3.39.25.03c.38-.13.63-.22.75-.27,1.11-.49,2.02-1.08,2.72-1.77l.18-.11c.66-.45,1.23-.95,1.72-1.49l.49-.59h0ZM394.99,92.93c.1,0,.11-.04.03-.11-.02.02-.03.06-.03.11h0ZM394.45,92.88h-.07s0,.04,0,.04l.07-.04h0ZM395.31,96.63s-.04.13-.06.33c.04-.12.07-.22.06-.29v-.04h0ZM395.65,97.09l-.36-.06.29.14.07-.07h0ZM395.99,97.62s-.1-.15-.23-.32c0,.12-.02.23-.06.33h.29ZM396.13,97.69l-.07-.03.08.11v-.07h0Z"/>
    </g>
  </g>
</svg>