<svg width="15" height="16" viewBox="0 0 15 16" fill="none" xmlns="http://www.w3.org/2000/svg">
<g id="Group">
<path id="Vector" d="M7.5 14.5333C11.0899 14.5333 14 11.5038 14 7.76667C14 4.02954 11.0899 1 7.5 1C3.91015 1 1 4.02954 1 7.76667C1 11.5038 3.91015 14.5333 7.5 14.5333Z" stroke="#000001" stroke-linecap="round" stroke-linejoin="round"/>
<path id="Vector_2" d="M6 6.20509C6 5.89625 6.08797 5.59434 6.2528 5.33755C6.41762 5.08076 6.65189 4.88061 6.92597 4.76242C7.20006 4.64423 7.50166 4.61331 7.79264 4.67356C8.08361 4.73381 8.35088 4.88253 8.56066 5.10092C8.77044 5.3193 8.9133 5.59754 8.97118 5.90045C9.02906 6.20336 8.99935 6.51734 8.88582 6.80267C8.77229 7.088 8.58003 7.33188 8.33336 7.50347C8.08668 7.67505 7.79667 7.76663 7.5 7.76663V8.80766" stroke="#000001" stroke-linecap="round" stroke-linejoin="round"/>
<path id="Ellipse 13" d="M7.5 11.4099C7.36193 11.4099 7.25 11.2934 7.25 11.1497C7.25 11.0059 7.36193 10.8894 7.5 10.8894" stroke="#000001" stroke-linecap="round" stroke-linejoin="round"/>
<path id="Ellipse 14" d="M7.49994 11.4099C7.63801 11.4099 7.74994 11.2934 7.74994 11.1497C7.74994 11.0059 7.63801 10.8894 7.49994 10.8894" stroke="#000001" stroke-linecap="round" stroke-linejoin="round"/>
</g>
</svg>