<svg width="42" height="42" viewBox="0 0 42 42" fill="none" xmlns="http://www.w3.org/2000/svg">
<path d="M17.8156 3.31511C18.0648 2.63326 18.5023 2.04734 19.0706 1.6342C19.6388 1.22107 20.3114 1 21 1C21.6886 1 22.3612 1.22107 22.9294 1.6342C23.4977 2.04734 23.9352 2.63326 24.1844 3.31511L27.8899 13.3392H37.7904C38.4378 13.3916 39.0584 13.6357 39.5818 14.0438C40.1052 14.4519 40.5104 15.0076 40.7515 15.6479C40.9927 16.2882 41.06 16.9875 40.946 17.6664C40.832 18.3453 40.5411 18.9767 40.1064 19.4889L31.3637 27.8525L35.0692 35.7241C35.4047 36.4152 35.5183 37.2037 35.3929 37.9697C35.2675 38.7357 34.9098 39.4372 34.3744 39.9674C33.8427 40.5044 33.1668 40.8521 32.4405 40.9623C31.7142 41.0725 30.9736 40.9397 30.3216 40.5824L21 35.1707L11.6784 40.5824C11.0264 40.9397 10.2858 41.0725 9.55953 40.9623C8.83323 40.8521 8.15728 40.5044 7.62555 39.9674C7.09016 39.4372 6.73253 38.7357 6.60711 37.9697C6.48169 37.2037 6.59535 36.4152 6.93078 35.7241L10.6363 27.8525L1.89365 19.4889C1.45892 18.9767 1.16804 18.3453 1.05401 17.6664C0.939968 16.9875 1.00733 16.2882 1.24846 15.6479C1.48959 15.0076 1.89484 14.4519 2.41822 14.0438C2.94161 13.6357 3.56219 13.3916 4.20957 13.3392H14.1101L17.8156 3.31511Z" fill="#726F6F" stroke="#000001" stroke-width="2" stroke-linecap="round" stroke-linejoin="round"/>
</svg> 