<svg xmlns="http://www.w3.org/2000/svg" width="24" height="24" viewBox="0 0 24 24" fill="none">
<path d="M12.0895 13.5891C14.4071 13.5891 16.2859 11.7103 16.2859 9.39269C16.2859 7.07508 14.4071 5.19629 12.0895 5.19629C9.77186 5.19629 7.89307 7.07508 7.89307 9.39269C7.89307 11.7103 9.77186 13.5891 12.0895 13.5891Z" stroke="#000001" stroke-linecap="round" stroke-linejoin="round"/>
<path d="M4.92188 20.1356C5.67092 18.9061 6.72366 17.89 7.97888 17.1848C9.23411 16.4797 10.6496 16.1094 12.0893 16.1094C13.529 16.1094 14.9446 16.4797 16.1998 17.1848C17.455 17.89 18.5077 18.9061 19.2568 20.1356" stroke="#000001" stroke-linecap="round" stroke-linejoin="round"/>
<path d="M12.0894 22.8213C18.1151 22.8213 23 17.9364 23 11.9106C23 5.88486 18.1151 1 12.0894 1C6.06357 1 1.17871 5.88486 1.17871 11.9106C1.17871 17.9364 6.06357 22.8213 12.0894 22.8213Z" stroke="#000001" stroke-linecap="round" stroke-linejoin="round"/>
</svg>